<svg width="468" height="499" viewBox="0 0 468 499" fill="none" xmlns="http://www.w3.org/2000/svg">
<path d="M304.64 283.099C303.932 272.315 302.79 261.564 301.216 250.872C296.282 217.944 287.513 185.705 275.088 154.815C267.783 136.809 262.017 126.497 262.017 126.497L211.936 132.956C211.936 132.956 217.717 145.015 223.968 168.648C226.504 178.24 229.11 189.772 231.453 203.232C232.654 210.005 233.754 217.273 234.752 225.035C236.156 235.865 237.275 247.643 238.106 260.367C238.568 267.547 238.91 275.028 239.132 282.808C239.215 285.636 239.34 288.367 239.381 291.277C239.469 300.494 238.923 309.706 237.746 318.847C236.72 327.164 235.223 335.439 233.435 343.645C230.905 355.226 227.806 366.675 224.148 377.951C221.36 386.535 218.332 395.04 215.069 403.455C210.301 415.806 205.505 426.908 201.36 436.154C194.402 451.664 189.287 461.977 189.287 464.125C189.287 470.917 194.139 483.642 228.057 492.125C281.103 505.376 286.218 483.517 286.218 483.517C286.218 483.517 289.586 473.288 293.509 453.134C295.45 443.181 297.515 430.887 299.386 416.014C300.514 407.115 301.539 397.338 302.463 386.683C304.362 364.259 305.379 341.768 305.513 319.263C305.54 315.853 305.624 312.554 305.624 309.047C305.624 300.176 305.208 291.568 304.64 283.099Z" fill="#C1694F"/>
<path d="M253.742 416.776C234.294 413.394 221.889 407.725 215.083 403.483C210.315 415.833 205.519 426.936 201.374 436.181C214.071 443.098 230.192 448.587 247.684 451.623C257.789 453.383 267.811 454.27 277.222 454.27C282.961 454.27 288.353 453.813 293.523 453.161C295.463 443.209 297.529 430.914 299.4 416.041C293.246 418.217 277.943 420.99 253.742 416.776ZM268.434 352.003C253.284 350.506 241.627 347.179 233.435 343.659C230.905 355.24 227.806 366.689 224.148 377.965C236.124 382.483 250.221 385.741 264.969 387.196C270.915 387.778 276.82 388.083 282.573 388.083C289.531 388.083 296.129 387.543 302.463 386.711C303.424 375.631 304.187 363.595 304.75 350.603C296.046 352.474 283.834 353.514 268.434 352.003ZM272.717 322.437C284.111 322.437 295.311 321.287 305.513 319.277C305.541 315.867 305.624 312.568 305.624 309.061C305.624 300.176 305.222 291.568 304.64 283.099C297.307 285.012 286.828 286.87 272.038 287.064C257.013 286.994 246.437 284.915 239.132 282.822C239.215 285.65 239.34 288.38 239.381 291.291C239.469 300.508 238.923 309.719 237.746 318.861C248.322 321.093 259.993 322.368 271.858 322.423L272.717 322.437ZM269.266 258.995C280.153 257.356 290.851 254.639 301.202 250.886C299.458 239.185 297.215 227.563 294.479 216.053C287.604 218.881 277.86 222.027 264.248 223.982C254.488 225.505 244.582 225.863 234.738 225.049C236.143 235.879 237.261 247.656 238.092 260.381C240.199 260.464 242.112 260.783 244.274 260.783C252.425 260.797 260.908 260.187 269.266 258.995ZM286.883 188.081C283.42 176.83 279.479 165.731 275.074 154.815C267.366 158.639 259.302 161.698 250.997 163.949C242.178 166.484 233.111 168.059 223.954 168.648C226.491 178.24 229.096 189.772 231.439 203.232C241.246 202.329 250.956 200.585 260.464 198.02C269.876 195.414 278.622 191.921 286.883 188.081Z" fill="#D99E82"/>
<path d="M452.011 59.6721C451.401 58.8266 389.913 -23.4114 310.156 12.6829C274.381 28.8588 251.288 55.292 242.916 89.4042C227.322 67.67 203.62 53.8504 172.321 48.2644C86.3963 32.934 34.7498 128.215 34.237 129.186C33.4885 130.599 33.8073 132.36 35.0132 133.413C36.2191 134.467 38.0211 134.536 39.324 133.621C39.7121 133.344 78.7727 105.996 143.878 117.584C210.426 129.421 257.082 141.065 257.553 141.175C258.158 141.328 258.793 141.314 259.39 141.136C259.988 140.958 260.527 140.622 260.949 140.164C261.393 139.678 305.582 92.2041 346.237 73.8104C406.38 46.6288 447.395 64.676 447.783 64.8562C448.482 65.175 449.267 65.2528 450.014 65.0771C450.762 64.9015 451.43 64.4825 451.914 63.8859C452.4 63.296 452.674 62.5599 452.691 61.7958C452.709 61.0316 452.469 60.2837 452.011 59.6721Z" fill="#3E721D"/>
<path d="M386.503 105.76C325.445 73.4916 277.707 89.224 247.961 108.81C212.269 102.059 146.304 102.447 90.4437 174.054C21.3738 262.585 81.8776 372.85 82.5013 373.959C83.0114 374.853 83.7748 375.576 84.6954 376.037C85.616 376.498 86.6525 376.676 87.6741 376.549C88.6957 376.421 89.6567 375.994 90.4357 375.321C91.2148 374.648 91.7771 373.759 92.0516 372.767C92.2595 372.018 113.218 296.254 166.209 232.52C194.957 197.923 229.277 165.904 253.644 144.641C278.068 148.771 313.621 157.767 348.538 177.27C417.261 215.707 448.809 280.757 449.128 281.408C449.582 282.389 450.334 283.202 451.278 283.729C452.221 284.257 453.307 284.473 454.381 284.347C455.448 284.222 456.451 283.774 457.257 283.063C458.062 282.352 458.63 281.412 458.886 280.369C459.163 279.149 486.165 158.391 386.503 105.76Z" fill="#5C913B"/>
<circle cx="282.901" cy="143.141" r="23.2083" fill="#904A1F"/>
<circle cx="274.12" cy="146.905" r="3.13625" fill="#302F2F"/>
<circle cx="282.901" cy="140.632" r="3.13625" fill="#302F2F"/>
<circle cx="291.683" cy="146.905" r="3.13625" fill="#302F2F"/>
<circle cx="233.546" cy="147.573" r="16.397" fill="#904A1F"/>
<circle cx="227.342" cy="150.232" r="2.21581" fill="#302F2F"/>
<circle cx="233.546" cy="145.8" r="2.21581" fill="#302F2F"/>
<circle cx="239.75" cy="150.232" r="2.21581" fill="#302F2F"/>
</svg>
