<svg width="500" height="350" viewBox="0 0 283 232" preserveAspectRatio="none" fill="none" xmlns="http://www.w3.org/2000/svg">
<path d="M244.042 120.027C240.997 120.027 238.04 120.403 235.209 121.102C235.856 118.294 236.184 115.422 236.186 112.54C236.186 91.4684 219.104 74.3861 198.032 74.3861C190.34 74.3754 182.826 76.7009 176.485 81.0549C169.327 53.479 144.269 33.1168 114.454 33.1168C79.062 33.1168 50.3707 61.8081 50.3707 97.2002C23.7615 97.2002 2.18993 118.771 2.18993 145.381C2.18993 171.99 23.7609 193.562 50.3707 193.562H244.042C264.349 193.562 280.81 177.1 280.81 156.794C280.81 136.487 264.349 120.027 244.042 120.027Z" fill="white"/>
</svg>
