<svg width="1440" height="625" viewBox="0 0 1440 625" fill="none" xmlns="http://www.w3.org/2000/svg">
<path d="M826.333 371C783.359 371 740.385 356.469 702.667 329.881C627.23 382.748 530.77 382.748 455.333 329.881C417.615 356.469 374.641 371 331.667 371H269.833V432.833H331.667C374.023 432.833 416.378 422.013 455.333 401.917C532.625 442.108 625.375 442.108 702.667 401.917C741.622 422.013 783.668 432.833 826.333 432.833H888.167V371" fill="#00BEEA"/>
<path d="M1441.33 371C1398.36 371 1355.39 356.469 1317.67 329.881C1242.23 382.748 1145.77 382.748 1070.33 329.881C1032.61 356.469 989.641 371 946.667 371H884.833V432.833H946.667C989.022 432.833 1031.38 422.013 1070.33 401.917C1147.62 442.108 1240.38 442.108 1317.67 401.917C1356.62 422.013 1398.67 432.833 1441.33 432.833H1503.17V371" fill="#00BEEA"/>
<path d="M274.143 435.41H-34.2456V370.685C101.545 370.685 68.9061 248.831 190.386 240.748C194.454 240.477 196.66 245.39 193.763 248.258C183.981 257.938 170.305 276.801 170.305 306.606C170.305 338.461 216.056 370.685 274.143 370.685V435.41ZM220.954 273.004C225.438 268.52 217.343 260.446 209.915 260.446C209.915 260.446 216.47 277.487 220.954 273.004ZM189.133 220.617C185.019 209.991 165.869 217.433 160.475 229.642C160.475 229.642 193.247 231.243 189.133 220.617Z" fill="#00BEEA"/>
<path d="M269.131 503.422C270.501 503.422 271.815 502.878 272.784 501.909C273.753 500.94 274.297 499.626 274.297 498.256V433.258C274.297 432.174 273.409 431.255 272.327 431.2C258.788 430.514 248.398 422.849 248.398 415.268C248.398 409.303 250.595 405.095 252.724 402.418C253.87 400.976 252.69 398.854 250.863 399.089C223.546 402.598 230.259 431.25 197.153 431.25C182.666 431.25 171.255 423.213 171.255 415.268C171.255 409.303 173.452 405.095 175.58 402.418C176.727 400.976 175.547 398.854 173.719 399.089C146.403 402.598 153.116 431.25 120.01 431.25C105.523 431.25 94.1115 423.213 94.1115 415.268C94.1115 409.303 96.308 405.095 98.4367 402.418C99.5834 400.976 98.4034 398.854 96.5759 399.089C69.2592 402.598 75.9723 431.25 42.8664 431.25C28.3791 431.25 16.9679 423.213 16.9679 415.268C16.9679 409.303 19.1645 405.095 21.2932 402.418C22.4399 400.976 21.2599 398.854 19.4324 399.089C-7.88434 402.598 -1.17119 431.25 -34.2771 431.25L-34.5005 497.454C-34.5499 500.735 -31.9034 503.422 -28.6212 503.422H269.131Z" fill="#76DFFF"/>
</svg>
