<svg width="95" height="95" viewBox="0 0 95 95" fill="none" xmlns="http://www.w3.org/2000/svg">
<path d="M25.5498 39.3359H13.5449V55.6641H25.5498L27.2197 56.7495L54.3652 74.4971V20.5029L27.2104 38.2505L25.5498 39.3359Z" fill="black" fill-opacity="0.15"/>
<path d="M82.7632 68.4482L72.5303 62.5386C72.3621 62.4423 72.1767 62.3801 71.9845 62.3555C71.7924 62.3309 71.5973 62.3444 71.4103 62.3953C71.2234 62.4461 71.0483 62.5333 70.895 62.6518C70.7417 62.7703 70.6133 62.9178 70.5171 63.0859L68.6709 66.2866C68.2627 66.9917 68.5039 67.9009 69.209 68.3091L79.4419 74.2188C79.61 74.315 79.7955 74.3772 79.9876 74.4018C80.1798 74.4264 80.3749 74.4129 80.5619 74.3621C80.7488 74.3112 80.9239 74.2241 81.0772 74.1056C81.2304 73.9871 81.3588 73.8395 81.4551 73.6714L83.3013 70.4707C83.7095 69.7656 83.459 68.8564 82.7632 68.4482ZM86.6504 44.1602H74.7754C73.959 44.1602 73.291 44.8281 73.291 45.6445V49.3555C73.291 50.1719 73.959 50.8398 74.7754 50.8398H86.6504C87.4668 50.8398 88.1348 50.1719 88.1348 49.3555V45.6445C88.1348 44.8281 87.4668 44.1602 86.6504 44.1602ZM70.5078 31.9141C70.604 32.0822 70.7325 32.2297 70.8857 32.3482C71.039 32.4668 71.2141 32.5539 71.401 32.6047C71.588 32.6556 71.7831 32.6691 71.9753 32.6445C72.1674 32.6199 72.3529 32.5577 72.521 32.4614L82.7539 26.5518C83.459 26.1436 83.7002 25.2344 83.292 24.5293L81.4551 21.3379C81.3588 21.1698 81.2304 21.0222 81.0772 20.9037C80.9239 20.7852 80.7488 20.698 80.5619 20.6472C80.3749 20.5964 80.1798 20.5829 79.9876 20.6075C79.7955 20.6321 79.61 20.6943 79.4419 20.7905L69.209 26.7002C68.8702 26.8977 68.6233 27.2214 68.5225 27.6004C68.4217 27.9794 68.475 28.3829 68.6709 28.7227L70.5078 31.9141ZM58.0669 10.6689C57.5195 10.6689 56.9629 10.8174 56.4526 11.1606L23.5645 32.6562H8.34961C7.5332 32.6562 6.86523 33.3242 6.86523 34.1406V60.8594C6.86523 61.6758 7.5332 62.3438 8.34961 62.3438H23.5645L56.4526 83.8394C56.9629 84.1733 57.5288 84.3311 58.0669 84.3311C59.6162 84.3311 61.0449 83.0972 61.0449 81.353V13.647C61.0449 11.9028 59.6162 10.6689 58.0669 10.6689ZM54.3652 74.4971L27.2197 56.7495L25.5498 55.6641H13.5449V39.3359H25.5498L27.2104 38.2505L54.3652 20.5029V74.4971Z" fill="#DDDDDD" fill-opacity="0.31"/>
</svg>
