<svg width="117" height="370" viewBox="0 0 117 370" fill="none" xmlns="http://www.w3.org/2000/svg">
<path d="M115.352 156.603C114.645 145.819 113.502 135.068 111.928 124.376C106.995 91.4473 98.2257 59.209 85.8003 28.3182C78.4955 10.3127 72.7292 0 72.7292 0L22.6491 6.45927C22.6491 6.45927 28.4291 18.5184 34.6805 42.1516C37.2171 51.7435 39.823 63.276 42.1655 76.7351C43.3668 83.5086 44.4665 90.7764 45.4645 98.5386C46.869 109.369 47.9872 121.146 48.8188 133.871C49.2809 141.051 49.6228 148.531 49.8446 156.312C49.9277 159.139 50.0525 161.87 50.0941 164.781C50.1817 173.997 49.6352 183.209 48.4584 192.351C47.4327 200.667 45.9357 208.942 44.1476 217.148C41.6181 228.729 38.5187 240.179 34.8607 251.454C32.0722 260.039 29.0447 268.543 25.7817 276.959C21.0134 289.309 16.2175 300.412 12.073 309.657C5.11475 325.168 0 335.481 0 337.629C0 344.421 4.85137 357.145 38.7695 365.628C91.816 378.88 96.9307 357.021 96.9307 357.021C96.9307 357.021 100.299 346.791 104.222 326.637C106.162 316.685 108.228 304.39 110.099 289.517C111.226 280.618 112.252 270.842 113.176 260.187C115.075 237.762 116.092 215.271 116.225 192.766C116.253 189.357 116.336 186.058 116.336 182.551C116.336 173.68 115.92 165.072 115.352 156.603Z" fill="#C1694F"/>
<path d="M64.4542 290.279C45.0071 286.897 32.6014 281.228 25.7956 276.987C21.0273 289.337 16.2314 300.44 12.0869 309.685C24.7837 316.602 40.9042 322.091 58.3969 325.126C68.5016 326.887 78.5232 327.774 87.9349 327.774C93.6734 327.774 99.0654 327.316 104.236 326.665C106.176 316.713 108.241 304.418 110.113 289.545C103.958 291.721 88.6557 294.493 64.4542 290.279ZM79.147 225.506C63.9968 224.009 52.3396 220.683 44.1477 217.162C41.6181 228.743 38.5187 240.193 34.8607 251.468C46.8367 255.987 60.9335 259.244 75.6817 260.7C81.6281 261.282 87.5329 261.587 93.2853 261.587C100.244 261.587 106.841 261.046 113.176 260.215C114.137 249.135 114.899 237.099 115.463 224.106C106.758 225.978 94.5467 227.017 79.147 225.506ZM83.43 195.941C94.8239 195.941 106.024 194.79 116.225 192.78C116.253 189.37 116.336 186.072 116.336 182.565C116.336 173.68 115.934 165.072 115.352 156.603C108.02 158.516 97.5407 160.373 82.7509 160.567C67.7254 160.498 57.1494 158.419 49.8446 156.326C49.9278 159.153 50.0525 161.884 50.0941 164.795C50.1817 174.011 49.6352 183.223 48.4585 192.364C59.0345 194.596 70.7056 195.871 82.5707 195.927L83.43 195.941ZM79.9786 132.498C90.8661 130.859 101.564 128.143 111.915 124.39C110.17 112.688 107.927 101.067 105.192 89.5566C98.3169 92.3843 88.5725 95.5308 74.9609 97.4852C65.2011 99.008 55.2949 99.3663 45.4506 98.5525C46.8552 109.383 47.9733 121.16 48.805 133.884C50.9119 133.968 52.8247 134.286 54.987 134.286C63.1374 134.3 71.6204 133.69 79.9786 132.498ZM97.5961 61.5849C94.1322 50.3339 90.1921 39.235 85.7864 28.3182C78.0786 32.1424 70.0144 35.2018 61.7097 37.4527C52.8907 39.9874 43.8238 41.5628 34.6667 42.1516C37.2032 51.7435 39.8091 63.276 42.1517 76.7351C51.9582 75.8326 61.669 74.0889 71.1768 71.5233C80.5885 68.9174 89.3349 65.4244 97.5961 61.5849Z" fill="#D99E82"/>
</svg>
