<svg width="429" height="374" viewBox="0 0 429 374" fill="none" xmlns="http://www.w3.org/2000/svg">
<path d="M418.176 56.143C417.566 55.2975 356.078 -26.9405 276.321 9.15385C240.546 25.3298 217.453 51.7629 209.081 85.8751C193.487 64.1409 169.785 50.3213 138.486 44.7353C52.5612 29.4049 0.914688 124.686 0.401827 125.656C-0.346673 127.07 -0.0278671 128.831 1.17805 129.884C2.38397 130.938 4.18591 131.007 5.48885 130.092C5.87696 129.815 44.9376 102.467 110.043 114.055C176.59 125.892 223.247 137.535 223.718 137.646C224.323 137.799 224.958 137.785 225.555 137.607C226.153 137.429 226.692 137.093 227.114 136.634C227.558 136.149 271.747 88.675 312.402 70.2813C372.545 43.0997 413.56 61.1469 413.948 61.3271C414.647 61.6459 415.432 61.7237 416.179 61.548C416.927 61.3724 417.595 60.9534 418.079 60.3568C418.565 59.7669 418.839 59.0308 418.856 58.2667C418.874 57.5025 418.634 56.7546 418.176 56.143Z" fill="#3E721D"/>
<path d="M352.668 102.231C291.61 69.9625 243.872 85.6949 214.126 105.281C178.434 98.5303 112.469 98.9184 56.6086 170.525C-12.4613 259.056 48.0424 369.321 48.6662 370.43C49.1762 371.324 49.9397 372.047 50.8603 372.508C51.7809 372.969 52.8174 373.147 53.839 373.02C54.8606 372.892 55.8215 372.465 56.6006 371.792C57.3797 371.119 57.9419 370.23 58.2165 369.238C58.4244 368.489 79.3824 292.724 132.373 228.991C161.121 194.394 195.441 162.375 219.809 141.112C244.233 145.242 279.786 154.238 314.703 173.741C383.426 212.178 414.974 277.228 415.293 277.879C415.747 278.86 416.499 279.673 417.443 280.2C418.386 280.728 419.472 280.944 420.546 280.818C421.613 280.693 422.616 280.245 423.421 279.534C424.227 278.823 424.795 277.883 425.051 276.84C425.328 275.62 452.329 154.862 352.668 102.231Z" fill="#5C913B"/>
<circle cx="249.066" cy="139.612" r="23.2083" fill="#904A1F"/>
<circle cx="240.284" cy="143.376" r="3.13625" fill="#302F2F"/>
<circle cx="249.066" cy="137.103" r="3.13625" fill="#302F2F"/>
<circle cx="257.847" cy="143.376" r="3.13625" fill="#302F2F"/>
<circle cx="199.711" cy="144.044" r="16.397" fill="#904A1F"/>
<circle cx="193.507" cy="146.703" r="2.21581" fill="#302F2F"/>
<circle cx="199.711" cy="142.271" r="2.21581" fill="#302F2F"/>
<circle cx="205.915" cy="146.703" r="2.21581" fill="#302F2F"/>
</svg>
